# Blender v2.79 (sub 0) OBJ File: ''
# www.blender.org
mtllib barrel.mtl
o Barrel1
v -0.742850 0.675173 -0.018192
v -0.724640 0.399999 -0.036402
v -0.852757 0.675173 -0.091629
v -0.645620 0.399999 0.081860
v -0.669412 0.675173 0.091715
v -0.770270 0.799998 0.009228
v -0.867596 0.799998 -0.055804
v -0.982401 0.799998 -0.078640
v -0.982401 0.675173 -0.117417
v -0.842902 0.399999 -0.115422
v -0.852757 0.124825 -0.091629
v -0.742850 0.124825 -0.018192
v -0.669412 0.124825 0.091715
v -0.645620 0.399999 0.081860
v -0.617872 0.399999 0.221360
v -0.669412 0.124825 0.091715
v -0.669412 0.675173 0.091715
v -0.643625 0.675173 0.221360
v -0.705238 0.799998 0.106555
v -0.705238 0.799998 0.106555
v -0.770270 0.799998 0.009228
v -0.721840 0.799998 0.113432
v -0.705238 0.799998 0.106555
v -0.782977 0.799998 0.021935
v -0.867596 0.799998 -0.055804
v -0.874473 0.799998 -0.039201
v -0.982401 0.799998 -0.060669
v -0.982401 0.799998 -0.078640
v -0.982401 0.799998 -0.060669
v -0.867596 0.799998 -0.055804
v -1.090329 0.799998 -0.039201
v -1.097206 0.799998 -0.055804
v -1.090329 0.799998 -0.039201
v -0.982401 0.799998 -0.078640
v -1.181826 0.799998 0.021935
v -1.194533 0.799998 0.009228
v -1.242962 0.799998 0.113432
v -1.259565 0.799998 0.106555
v -1.264430 0.799998 0.221360
v -1.282400 0.799998 0.221360
v -1.295390 0.675173 0.091715
v -1.282400 0.799998 0.221360
v -1.259565 0.799998 0.106555
v -1.321178 0.675173 0.221360
v -1.319183 0.399999 0.081860
v -1.346931 0.399999 0.221360
v -1.321178 0.124825 0.221360
v -1.295390 0.124825 0.091715
v -1.240163 0.399999 -0.036402
v -1.221952 0.124825 -0.018192
v -1.121901 0.399999 -0.115422
v -1.112045 0.124825 -0.091629
v -0.982401 0.399999 -0.143170
v -0.982401 0.124825 -0.117417
v -0.982401 0.000000 -0.078640
v -0.867596 0.000000 -0.055804
v -0.770270 0.000000 0.009228
v -0.705238 0.000000 0.106555
v -0.643625 0.124825 0.221360
v -0.705238 0.000000 0.106555
v -0.645620 0.399999 0.360859
v -0.669412 0.675173 0.351004
v -0.682402 0.799998 0.221360
v -0.705238 0.799998 0.336164
v -0.700372 0.799998 0.221360
v -0.705238 0.799998 0.336164
v -0.682402 0.799998 0.221360
v -0.721840 0.799998 0.329287
v -0.770269 0.799998 0.433491
v -0.782977 0.799998 0.420784
v -0.867596 0.799998 0.498523
v -0.874473 0.799998 0.481920
v -0.982401 0.799998 0.503388
v -0.982401 0.799998 0.521359
v -1.097206 0.799998 0.498523
v -1.090329 0.799998 0.481920
v -1.097206 0.799998 0.498523
v -0.982401 0.799998 0.503388
v -1.181826 0.799998 0.420784
v -1.194533 0.799998 0.433491
v -1.259565 0.799998 0.336164
v -1.242962 0.799998 0.329287
v -1.181826 0.799998 0.420784
v -1.259565 0.799998 0.336164
v -1.295390 0.675173 0.351004
v -1.319183 0.399999 0.360859
v -1.295390 0.124825 0.351004
v -1.259565 0.000000 0.336164
v -1.282400 0.000000 0.221360
v -1.259565 0.000000 0.106555
v -1.194533 0.000000 0.009228
v -1.097206 0.000000 -0.055804
v -1.090329 0.000000 -0.039201
v -1.097206 0.000000 -0.055804
v -0.982401 0.000000 -0.078640
v -1.181826 0.000000 0.021935
v -1.175862 0.020000 0.027899
v -1.181826 0.000000 0.021935
v -1.235170 0.020000 0.116659
v -1.235170 0.020000 0.326060
v -1.175862 0.020000 0.027899
v -1.255996 0.020000 0.221360
v -1.264430 0.000000 0.221360
v -1.255996 0.020000 0.221360
v -1.235170 0.020000 0.326060
v -1.242962 0.000000 0.113432
v -1.242962 0.000000 0.113432
v -1.194533 0.000000 0.009228
v -1.259565 0.000000 0.106555
v -1.264430 0.000000 0.221360
v -1.282400 0.000000 0.221360
v -1.242962 0.000000 0.329287
v -1.242962 0.000000 0.329287
v -1.259565 0.000000 0.336164
v -1.282400 0.000000 0.221360
v -1.181826 0.000000 0.420784
v -1.175862 0.020000 0.414820
v -1.181826 0.000000 0.420784
v -1.175862 0.020000 0.414820
v -1.087101 0.020000 -0.031409
v -1.087101 0.020000 -0.031409
v -0.982401 0.000000 -0.060669
v -0.982401 0.000000 -0.078640
v -0.982401 0.000000 -0.060669
v -1.090329 0.000000 -0.039201
v -0.867596 0.000000 -0.055804
v -0.874473 0.000000 -0.039201
v -0.770270 0.000000 0.009228
v -0.782977 0.000000 0.021935
v -0.874473 0.000000 -0.039201
v -0.705238 0.000000 0.106555
v -0.721840 0.000000 0.113432
v -0.782977 0.000000 0.021935
v -0.682402 0.000000 0.221360
v -0.682402 0.000000 0.221360
v -0.669412 0.124825 0.351004
v -0.724640 0.399999 0.479121
v -0.742850 0.675173 0.460911
v -0.770269 0.799998 0.433491
v -0.852757 0.675173 0.534348
v -0.867596 0.799998 0.498523
v -0.982401 0.675173 0.560136
v -0.982401 0.799998 0.521359
v -1.112046 0.675173 0.534348
v -1.097206 0.799998 0.498523
v -1.221952 0.675173 0.460911
v -1.194533 0.799998 0.433491
v -1.240163 0.399999 0.479121
v -1.221952 0.124825 0.460911
v -1.194533 0.000000 0.433491
v -1.194533 0.000000 0.433491
v -1.090329 0.000000 0.481920
v -1.087101 0.020000 0.474128
v -1.090329 0.000000 0.481920
v -0.982401 0.020000 0.494954
v -0.982401 0.000000 0.503388
v -0.877701 0.020000 0.474128
v -0.874473 0.000000 0.481920
v -0.788940 0.020000 0.414820
v -0.782977 0.000000 0.420784
v -0.729632 0.020000 0.326060
v -0.721840 0.000000 0.329287
v -0.708806 0.020000 0.221360
v -0.700372 0.000000 0.221360
v -0.729632 0.020000 0.116659
v -0.721840 0.000000 0.113432
v -0.705238 0.000000 0.336164
v -0.770269 0.000000 0.433491
v -0.721840 0.000000 0.329287
v -0.705238 0.000000 0.336164
v -0.867596 0.000000 0.498523
v -0.852757 0.124825 0.534348
v -0.867596 0.000000 0.498523
v -0.770269 0.000000 0.433491
v -0.982401 0.124825 0.560136
v -0.982401 0.000000 0.521359
v -1.112046 0.124825 0.534348
v -1.097206 0.000000 0.498523
v -1.097206 0.000000 0.498523
v -0.982401 0.000000 0.503388
v -0.982401 0.000000 0.521359
v -0.874473 0.000000 0.481920
v -0.782977 0.000000 0.420784
v -1.121901 0.399999 0.558141
v -0.982401 0.399999 0.585889
v -0.842902 0.399999 0.558141
v -0.742850 0.124825 0.460911
v -0.705238 0.000000 0.336164
v -0.788940 0.020000 0.027899
v -0.877701 0.020000 -0.031409
v -0.982401 0.020000 -0.052235
v -0.982401 0.020000 -0.052235
v -0.877701 0.020000 -0.031409
v -0.877701 0.020000 0.474128
v -0.788940 0.020000 0.027899
v -0.788940 0.020000 0.414820
v -0.729632 0.020000 0.116659
v -0.708806 0.020000 0.221360
v -1.264430 0.799998 0.221360
v -1.235170 0.779998 0.326060
v -1.175862 0.779998 0.414820
v -1.087101 0.779998 0.474128
v -1.090329 0.799998 0.481920
v -0.982401 0.779998 0.494954
v -0.982401 0.799998 0.503388
v -0.877701 0.779998 0.474128
v -0.874473 0.799998 0.481920
v -0.788940 0.779998 0.414820
v -0.782977 0.799998 0.420784
v -0.729632 0.779998 0.326060
v -0.729632 0.779998 0.116659
v -0.788940 0.779998 0.414820
v -0.788940 0.779998 0.027899
v -0.877701 0.779998 -0.031409
v -0.877701 0.779998 0.474128
v -0.982401 0.779998 0.494954
v -1.087101 0.779998 -0.031409
v -1.087101 0.779998 0.474128
v -1.175862 0.779998 0.027899
v -1.175862 0.779998 0.414820
v -1.235170 0.779998 0.116659
v -1.235170 0.779998 0.326060
v -1.255996 0.779998 0.221360
v -1.242962 0.799998 0.113432
v -1.255996 0.779998 0.221360
v -1.181826 0.799998 0.021935
v -1.175862 0.779998 0.027899
v -1.090329 0.799998 -0.039201
v -1.087101 0.779998 -0.031409
v -0.982401 0.779998 -0.052235
v -0.874473 0.799998 -0.039201
v -0.782977 0.799998 0.021935
v -0.788940 0.779998 0.027899
v -0.721840 0.799998 0.113432
v -0.729632 0.779998 0.116659
v -0.700372 0.799998 0.221360
v -0.708806 0.779998 0.221360
v -0.708806 0.779998 0.221360
v -1.112045 0.675173 -0.091629
v -1.221952 0.675173 -0.018192
v -1.194533 0.799998 0.009228
v -1.097206 0.799998 -0.055804
vt 0.076205 0.394907
vt 0.076205 0.241304
vt 0.136881 0.394907
vt 0.015528 0.241304
vt 0.015528 0.394907
vt 0.076205 0.464585
vt 0.136881 0.464585
vt 0.197557 0.464585
vt 0.197557 0.394907
vt 0.136881 0.241304
vt 0.136881 0.087701
vt 0.076205 0.087701
vt 0.015528 0.087701
vt 0.986349 0.241304
vt 0.925673 0.241304
vt 0.986349 0.087701
vt 0.986349 0.394907
vt 0.925673 0.394907
vt 0.986349 0.464585
vt 0.015528 0.464585
vt 0.369932 0.776970
vt 0.395315 0.722353
vt 0.404017 0.725957
vt 0.363272 0.770309
vt 0.318920 0.811055
vt 0.315316 0.802353
vt 0.258747 0.813605
vt 0.258745 0.823025
vt 0.258745 0.813606
vt 0.318919 0.811055
vt 0.202177 0.802353
vt 0.198572 0.811055
vt 0.202176 0.802353
vt 0.258744 0.823024
vt 0.154220 0.770310
vt 0.147559 0.776970
vt 0.122176 0.722353
vt 0.113474 0.725958
vt 0.110924 0.665784
vt 0.101505 0.665784
vt 0.379586 0.394907
vt 0.440262 0.464585
vt 0.379586 0.464585
vt 0.440262 0.394907
vt 0.379586 0.241304
vt 0.440262 0.241304
vt 0.440262 0.087701
vt 0.379586 0.087701
vt 0.318910 0.241304
vt 0.318910 0.087701
vt 0.258234 0.241304
vt 0.258234 0.087701
vt 0.197557 0.241304
vt 0.197557 0.087701
vt 0.197557 0.018023
vt 0.136881 0.018023
vt 0.076205 0.018023
vt 0.015528 0.018023
vt 0.925673 0.087701
vt 0.986349 0.018023
vt 0.864997 0.241304
vt 0.864997 0.394907
vt 0.925673 0.464585
vt 0.864997 0.464585
vt 0.406567 0.665784
vt 0.404016 0.605611
vt 0.415986 0.665784
vt 0.395314 0.609216
vt 0.369931 0.554599
vt 0.363271 0.561259
vt 0.318919 0.520514
vt 0.315314 0.529216
vt 0.258746 0.517963
vt 0.258746 0.508544
vt 0.198573 0.520513
vt 0.202177 0.529215
vt 0.198572 0.520513
vt 0.258745 0.517962
vt 0.154220 0.561259
vt 0.147560 0.554599
vt 0.113474 0.605611
vt 0.122177 0.609216
vt 0.154220 0.561259
vt 0.500939 0.464585
vt 0.500939 0.394907
vt 0.500939 0.241304
vt 0.500939 0.087701
vt 0.500939 0.018023
vt 0.440262 0.018023
vt 0.379586 0.018023
vt 0.318910 0.018023
vt 0.258234 0.018023
vt 0.689695 0.802327
vt 0.686090 0.811029
vt 0.746264 0.822998
vt 0.641739 0.770283
vt 0.648764 0.763258
vt 0.641738 0.770284
vt 0.618874 0.718525
vt 0.618874 0.612992
vt 0.648764 0.763258
vt 0.608379 0.665758
vt 0.598443 0.665758
vt 0.608379 0.665758
vt 0.618874 0.612992
vt 0.609695 0.722327
vt 0.609695 0.722327
vt 0.635078 0.776944
vt 0.600993 0.725932
vt 0.598443 0.665759
vt 0.589024 0.665759
vt 0.609696 0.609191
vt 0.609695 0.609189
vt 0.600993 0.605585
vt 0.589024 0.665758
vt 0.641738 0.561233
vt 0.648764 0.568259
vt 0.641738 0.561233
vt 0.648764 0.568259
vt 0.693497 0.793148
vt 0.693497 0.793148
vt 0.746264 0.813579
vt 0.746264 0.822998
vt 0.746264 0.813579
vt 0.689695 0.802326
vt 0.806437 0.811029
vt 0.802832 0.802327
vt 0.857449 0.776944
vt 0.850789 0.770284
vt 0.802832 0.802327
vt 0.891535 0.725931
vt 0.882833 0.722327
vt 0.850789 0.770284
vt 0.903504 0.665758
vt 0.925673 0.018023
vt 0.864997 0.087701
vt 0.804320 0.241304
vt 0.804320 0.394907
vt 0.804320 0.464585
vt 0.743644 0.394907
vt 0.743644 0.464585
vt 0.682968 0.394907
vt 0.682968 0.464585
vt 0.622291 0.394907
vt 0.622291 0.464585
vt 0.561615 0.394907
vt 0.561615 0.464585
vt 0.561615 0.241304
vt 0.561615 0.087701
vt 0.561615 0.018023
vt 0.635078 0.554573
vt 0.689695 0.529189
vt 0.693497 0.538369
vt 0.689695 0.529189
vt 0.746264 0.527873
vt 0.746264 0.517937
vt 0.799030 0.538369
vt 0.802832 0.529189
vt 0.843763 0.568259
vt 0.850789 0.561233
vt 0.873653 0.612992
vt 0.882833 0.609190
vt 0.884149 0.665758
vt 0.894085 0.665758
vt 0.873653 0.718525
vt 0.882832 0.722327
vt 0.891535 0.605585
vt 0.857449 0.554573
vt 0.882832 0.609190
vt 0.891534 0.605585
vt 0.806437 0.520487
vt 0.743644 0.087701
vt 0.743644 0.018023
vt 0.804320 0.018023
vt 0.682968 0.087701
vt 0.682968 0.018023
vt 0.622291 0.087701
vt 0.622291 0.018023
vt 0.686090 0.520487
vt 0.746264 0.517937
vt 0.746264 0.508518
vt 0.802833 0.529190
vt 0.850789 0.561233
vt 0.622291 0.241304
vt 0.682968 0.241304
vt 0.743644 0.241304
vt 0.804320 0.087701
vt 0.864997 0.018023
vt 0.843763 0.763258
vt 0.799030 0.793148
vt 0.746264 0.803643
vt 0.746264 0.803644
vt 0.799030 0.793148
vt 0.799030 0.538369
vt 0.843763 0.763258
vt 0.843763 0.568259
vt 0.873653 0.718525
vt 0.884149 0.665758
vt 0.110924 0.665784
vt 0.131356 0.613018
vt 0.161246 0.568285
vt 0.205979 0.538395
vt 0.202177 0.529215
vt 0.258745 0.527899
vt 0.258745 0.517963
vt 0.311512 0.538395
vt 0.315314 0.529215
vt 0.356245 0.568285
vt 0.363271 0.561259
vt 0.386135 0.613018
vt 0.386135 0.718551
vt 0.356245 0.568285
vt 0.356245 0.763284
vt 0.311512 0.793174
vt 0.311512 0.538395
vt 0.258745 0.527899
vt 0.205979 0.793174
vt 0.205979 0.538395
vt 0.161246 0.763284
vt 0.161246 0.568285
vt 0.131356 0.718551
vt 0.131356 0.613018
vt 0.120860 0.665784
vt 0.122177 0.722353
vt 0.120860 0.665784
vt 0.154220 0.770310
vt 0.161246 0.763284
vt 0.202177 0.802353
vt 0.205979 0.793174
vt 0.258745 0.803669
vt 0.315314 0.802353
vt 0.363271 0.770310
vt 0.356245 0.763284
vt 0.395314 0.722353
vt 0.386135 0.718551
vt 0.406567 0.665784
vt 0.396631 0.665784
vt 0.396631 0.665784
vt 0.258234 0.394907
vt 0.318910 0.394907
vt 0.318910 0.464585
vt 0.258234 0.464585
vn 0.5532 0.0914 -0.8280
vn 0.8280 0.0914 -0.5532
vn 0.7954 0.2915 -0.5314
vn 0.5314 0.2915 -0.7954
vn 0.5315 0.2915 -0.7954
vn 0.1866 0.2915 -0.9382
vn 0.1943 0.0914 -0.9767
vn 0.5532 -0.0914 -0.8280
vn 0.8280 -0.0914 -0.5532
vn 0.9767 -0.0914 -0.1943
vn 0.9767 0.0914 -0.1943
vn 0.9382 0.2915 -0.1866
vn 0.7954 0.2915 -0.5315
vn 0.0000 1.0000 0.0000
vn -0.9382 0.2915 -0.1866
vn -0.9767 0.0914 -0.1943
vn -0.9767 -0.0914 -0.1943
vn -0.8280 -0.0914 -0.5532
vn -0.5532 -0.0914 -0.8280
vn -0.1943 -0.0914 -0.9767
vn 0.1943 -0.0914 -0.9767
vn 0.1866 -0.2915 -0.9382
vn 0.5314 -0.2915 -0.7954
vn 0.7954 -0.2915 -0.5314
vn 0.7954 -0.2915 -0.5315
vn 0.9382 -0.2915 -0.1866
vn 0.9767 -0.0914 0.1943
vn 0.9767 0.0914 0.1943
vn 0.9382 0.2915 0.1866
vn -0.9382 0.2915 0.1866
vn -0.9767 0.0914 0.1943
vn -0.9767 -0.0914 0.1943
vn -0.9382 -0.2915 0.1866
vn -0.9382 -0.2915 -0.1866
vn -0.7954 -0.2915 -0.5314
vn -0.7954 -0.2915 -0.5315
vn -0.5314 -0.2915 -0.7954
vn -0.1866 -0.2915 -0.9382
vn 0.0000 -1.0000 0.0000
vn 0.5134 -0.3822 0.7683
vn 0.7683 -0.3822 0.5134
vn 0.9063 -0.3822 -0.1803
vn 0.9063 -0.3822 0.1803
vn 0.7683 -0.3822 -0.5134
vn 0.1803 -0.3822 0.9063
vn 0.9382 -0.2915 0.1866
vn 0.8280 -0.0914 0.5532
vn 0.8280 0.0914 0.5532
vn 0.7954 0.2915 0.5314
vn 0.7954 0.2915 0.5315
vn 0.5315 0.2915 0.7954
vn 0.5314 0.2915 0.7954
vn 0.1866 0.2915 0.9382
vn -0.1866 0.2915 0.9382
vn -0.5315 0.2915 0.7954
vn -0.5314 0.2915 0.7954
vn -0.7954 0.2915 0.5314
vn -0.8280 0.0914 0.5532
vn -0.8280 -0.0914 0.5532
vn -0.7954 -0.2915 0.5314
vn 0.5134 -0.3822 -0.7683
vn 0.1803 -0.3822 -0.9063
vn -0.1803 -0.3822 -0.9063
vn -0.5134 -0.3822 -0.7683
vn -0.7683 -0.3822 -0.5134
vn -0.9063 -0.3822 -0.1803
vn -0.9063 -0.3822 0.1803
vn 0.5314 -0.2915 0.7954
vn 0.1866 -0.2915 0.9382
vn -0.1866 -0.2915 0.9382
vn -0.5315 -0.2915 0.7954
vn -0.5314 -0.2915 0.7954
vn -0.5532 -0.0914 0.8280
vn -0.1943 -0.0914 0.9767
vn 0.1943 -0.0914 0.9767
vn 0.5532 -0.0914 0.8280
vn 0.5315 -0.2915 0.7954
vn 0.7954 -0.2915 0.5314
vn 0.5532 0.0914 0.8280
vn 0.1943 0.0914 0.9767
vn -0.1943 0.0914 0.9767
vn -0.5532 0.0914 0.8280
vn -0.7683 -0.3822 0.5134
vn -0.5134 -0.3822 0.7683
vn -0.1803 -0.3822 0.9063
vn 0.9063 0.3822 -0.1803
vn 0.7683 0.3822 -0.5134
vn 0.5134 0.3822 -0.7683
vn 0.1803 0.3822 -0.9063
vn -0.1803 0.3822 -0.9063
vn -0.5134 0.3822 -0.7683
vn -0.7683 0.3822 -0.5134
vn 0.9063 0.3822 0.1803
vn 0.7683 0.3822 0.5134
vn 0.5134 0.3822 0.7683
vn 0.1803 0.3822 0.9063
vn -0.1803 0.3822 0.9063
vn -0.5134 0.3822 0.7683
vn -0.7683 0.3822 0.5134
vn -0.9063 0.3822 0.1803
vn -0.9063 0.3822 -0.1803
vn -0.1943 0.0914 -0.9767
vn -0.5532 0.0914 -0.8280
vn -0.8280 0.0914 -0.5532
vn -0.7954 0.2915 -0.5314
vn -0.7954 0.2915 -0.5315
vn -0.5314 0.2915 -0.7954
vn -0.1866 0.2915 -0.9382
usemtl 03___Def
s off
f 1/1/1 2/2/1 3/3/1
f 2/2/2 1/1/2 4/4/2
f 1/1/2 5/5/2 4/4/2
f 1/1/3 6/6/3 5/5/3
f 6/6/4 1/1/4 7/7/4
f 7/7/5 1/1/5 3/3/5
f 7/7/6 3/3/6 8/8/6
f 8/8/6 3/3/6 9/9/6
f 3/3/7 10/10/7 9/9/7
f 3/3/1 2/2/1 10/10/1
f 2/2/8 11/11/8 10/10/8
f 2/2/8 12/12/8 11/11/8
f 2/2/9 4/4/9 12/12/9
f 12/12/9 4/4/9 13/13/9
f 14/14/10 15/15/10 16/16/10
f 14/14/11 17/17/11 15/15/11
f 17/17/11 18/18/11 15/15/11
f 17/17/12 19/19/12 18/18/12
f 6/6/13 20/20/13 5/5/13
f 21/21/14 22/22/14 23/23/14
f 21/21/14 24/24/14 22/22/14
f 25/25/14 24/24/14 21/21/14
f 25/25/14 26/26/14 24/24/14
f 26/26/14 25/25/14 27/27/14
f 28/28/14 29/29/14 30/30/14
f 29/29/14 28/28/14 31/31/14
f 32/32/14 33/33/14 34/34/14
f 32/32/14 35/35/14 33/33/14
f 36/36/14 35/35/14 32/32/14
f 36/36/14 37/37/14 35/35/14
f 38/38/14 37/37/14 36/36/14
f 38/38/14 39/39/14 37/37/14
f 39/39/14 38/38/14 40/40/14
f 41/41/15 42/42/15 43/43/15
f 41/41/15 44/44/15 42/42/15
f 45/45/16 44/44/16 41/41/16
f 45/45/16 46/46/16 44/44/16
f 45/45/17 47/47/17 46/46/17
f 45/45/17 48/48/17 47/47/17
f 49/49/18 48/48/18 45/45/18
f 49/49/18 50/50/18 48/48/18
f 51/51/19 50/50/19 49/49/19
f 51/51/19 52/52/19 50/50/19
f 53/53/20 52/52/20 51/51/20
f 53/53/20 54/54/20 52/52/20
f 10/10/21 54/54/21 53/53/21
f 10/10/21 11/11/21 54/54/21
f 11/11/22 55/55/22 54/54/22
f 11/11/22 56/56/22 55/55/22
f 12/12/23 56/56/23 11/11/23
f 12/12/23 57/57/23 56/56/23
f 12/12/24 13/13/24 57/57/24
f 57/57/25 13/13/25 58/58/25
f 16/16/26 59/59/26 60/60/26
f 16/16/10 15/15/10 59/59/10
f 59/59/27 15/15/27 61/61/27
f 18/18/28 61/61/28 15/15/28
f 18/18/28 62/62/28 61/61/28
f 63/63/29 62/62/29 18/18/29
f 63/63/29 64/64/29 62/62/29
f 65/65/14 66/66/14 67/67/14
f 68/68/14 66/66/14 65/65/14
f 68/68/14 69/69/14 66/66/14
f 70/70/14 69/69/14 68/68/14
f 70/70/14 71/71/14 69/69/14
f 72/72/14 71/71/14 70/70/14
f 73/73/14 71/71/14 72/72/14
f 73/73/14 74/74/14 71/71/14
f 74/74/14 73/73/14 75/75/14
f 76/76/14 77/77/14 78/78/14
f 79/79/14 77/77/14 76/76/14
f 79/79/14 80/80/14 77/77/14
f 80/80/14 79/79/14 81/81/14
f 82/82/14 81/81/14 83/83/14
f 39/39/14 81/81/14 82/82/14
f 81/81/14 39/39/14 40/40/14
f 44/44/30 84/84/30 42/42/30
f 44/44/30 85/85/30 84/84/30
f 46/46/31 85/85/31 44/44/31
f 46/46/31 86/86/31 85/85/31
f 46/46/32 87/87/32 86/86/32
f 46/46/32 47/47/32 87/87/32
f 47/47/33 88/88/33 87/87/33
f 47/47/33 89/89/33 88/88/33
f 48/48/34 89/89/34 47/47/34
f 48/48/34 90/90/34 89/89/34
f 50/50/35 90/90/35 48/48/35
f 50/50/36 91/91/36 90/90/36
f 52/52/37 91/91/37 50/50/37
f 52/52/37 92/92/37 91/91/37
f 54/54/38 92/92/38 52/52/38
f 54/54/38 55/55/38 92/92/38
f 93/93/39 94/94/39 95/95/39
f 94/94/39 93/93/39 96/96/39
f 97/97/40 98/98/40 93/93/40
f 98/98/41 97/97/41 99/99/41
f 100/100/39 99/99/39 101/101/39
f 99/99/39 100/100/39 102/102/39
f 103/103/42 104/104/42 105/105/42
f 106/106/43 104/104/43 103/103/43
f 106/106/43 99/99/43 104/104/43
f 98/98/41 99/99/41 106/106/41
f 107/107/39 108/108/39 98/98/39
f 107/107/39 109/109/39 108/108/39
f 110/110/39 109/109/39 107/107/39
f 109/109/39 110/110/39 111/111/39
f 112/112/39 111/111/39 110/110/39
f 113/113/39 114/114/39 115/115/39
f 114/114/39 113/113/39 116/116/39
f 113/113/44 117/117/44 118/118/44
f 105/105/44 117/117/44 113/113/44
f 100/100/39 101/101/39 119/119/39
f 119/119/39 101/101/39 120/120/39
f 97/97/40 93/93/40 121/121/40
f 121/121/45 93/93/45 122/122/45
f 123/123/39 124/124/39 125/125/39
f 124/124/39 123/123/39 126/126/39
f 124/124/39 126/126/39 127/127/39
f 127/127/39 126/126/39 128/128/39
f 128/128/39 129/129/39 130/130/39
f 129/129/39 128/128/39 131/131/39
f 131/131/39 132/132/39 133/133/39
f 132/132/39 131/131/39 134/134/39
f 60/60/26 59/59/26 135/135/26
f 135/135/46 59/59/46 136/136/46
f 59/59/27 61/61/27 136/136/27
f 136/136/47 61/61/47 137/137/47
f 62/62/48 137/137/48 61/61/48
f 62/62/48 138/138/48 137/137/48
f 64/64/49 138/138/49 62/62/49
f 64/64/50 139/139/50 138/138/50
f 139/139/51 140/140/51 138/138/51
f 141/141/52 140/140/52 139/139/52
f 141/141/53 142/142/53 140/140/53
f 143/143/53 142/142/53 141/141/53
f 143/143/54 144/144/54 142/142/54
f 145/145/54 144/144/54 143/143/54
f 145/145/55 146/146/55 144/144/55
f 147/147/56 146/146/56 145/145/56
f 85/85/57 146/146/57 147/147/57
f 85/85/58 86/86/58 146/146/58
f 86/86/58 148/148/58 146/146/58
f 86/86/59 149/149/59 148/148/59
f 87/87/59 149/149/59 86/86/59
f 87/87/60 150/150/60 149/149/60
f 88/88/60 150/150/60 87/87/60
f 118/118/39 151/151/39 114/114/39
f 151/151/39 118/118/39 152/152/39
f 153/153/61 154/154/61 118/118/61
f 155/155/62 154/154/62 153/153/62
f 155/155/62 156/156/62 154/154/62
f 157/157/63 156/156/63 155/155/63
f 157/157/63 158/158/63 156/156/63
f 159/159/64 158/158/64 157/157/64
f 159/159/64 160/160/64 158/158/64
f 161/161/65 160/160/65 159/159/65
f 161/161/65 162/162/65 160/160/65
f 163/163/66 162/162/66 161/161/66
f 163/163/66 164/164/66 162/162/66
f 165/165/67 164/164/67 163/163/67
f 132/132/67 164/164/67 165/165/67
f 134/134/39 164/164/39 166/166/39
f 167/167/39 164/164/39 134/134/39
f 164/164/39 167/167/39 162/162/39
f 168/168/39 169/169/39 170/170/39
f 168/168/39 160/160/39 169/169/39
f 160/160/39 168/168/39 171/171/39
f 172/172/68 173/173/68 174/174/68
f 175/175/69 173/173/69 172/172/69
f 175/175/69 176/176/69 173/173/69
f 177/177/70 176/176/70 175/175/70
f 177/177/70 178/178/70 176/176/70
f 149/149/71 178/178/71 177/177/71
f 149/149/72 150/150/72 178/178/72
f 154/154/39 179/179/39 151/151/39
f 179/179/39 154/154/39 180/180/39
f 156/156/39 181/181/39 179/179/39
f 181/181/39 156/156/39 182/182/39
f 158/158/39 171/171/39 181/181/39
f 171/171/39 158/158/39 183/183/39
f 148/148/73 149/149/73 177/177/73
f 148/148/73 177/177/73 184/184/73
f 184/184/74 177/177/74 175/175/74
f 184/184/74 175/175/74 185/185/74
f 185/185/75 175/175/75 172/172/75
f 185/185/75 172/172/75 186/186/75
f 186/186/76 172/172/76 187/187/76
f 172/172/77 174/174/77 187/187/77
f 188/188/78 187/187/78 174/174/78
f 188/188/78 136/136/78 187/187/78
f 135/135/46 136/136/46 188/188/46
f 136/136/47 137/137/47 187/187/47
f 186/186/76 187/187/76 137/137/76
f 138/138/79 186/186/79 137/137/79
f 140/140/79 186/186/79 138/138/79
f 140/140/80 185/185/80 186/186/80
f 142/142/80 185/185/80 140/140/80
f 142/142/81 184/184/81 185/185/81
f 144/144/81 184/184/81 142/142/81
f 144/144/82 148/148/82 184/184/82
f 146/146/82 148/148/82 144/144/82
f 189/189/83 132/132/83 165/165/83
f 129/129/83 132/132/83 189/189/83
f 190/190/84 129/129/84 189/189/84
f 190/190/84 127/127/84 129/129/84
f 191/191/85 127/127/85 190/190/85
f 191/191/85 122/122/85 127/127/85
f 121/121/45 122/122/45 191/191/45
f 153/153/39 120/120/39 192/192/39
f 119/119/39 120/120/39 153/153/39
f 153/153/61 118/118/61 117/117/61
f 153/153/39 192/192/39 155/155/39
f 155/155/39 192/192/39 193/193/39
f 155/155/39 193/193/39 194/194/39
f 194/194/39 193/193/39 195/195/39
f 194/194/39 195/195/39 196/196/39
f 196/196/39 195/195/39 197/197/39
f 196/196/39 197/197/39 161/161/39
f 161/161/39 197/197/39 198/198/39
f 84/84/57 85/85/57 147/147/57
f 103/103/42 105/105/42 113/113/42
f 98/98/39 108/108/39 94/94/39
f 199/199/86 82/82/86 200/200/86
f 200/200/87 82/82/87 201/201/87
f 82/82/87 79/79/87 201/201/87
f 79/79/88 202/202/88 201/201/88
f 203/203/88 202/202/88 79/79/88
f 203/203/89 204/204/89 202/202/89
f 205/205/89 204/204/89 203/203/89
f 205/205/90 206/206/90 204/204/90
f 207/207/90 206/206/90 205/205/90
f 207/207/91 208/208/91 206/206/91
f 209/209/91 208/208/91 207/207/91
f 210/210/92 208/208/92 209/209/92
f 211/211/14 212/212/14 210/210/14
f 213/213/14 212/212/14 211/211/14
f 214/214/14 212/212/14 213/213/14
f 214/214/14 215/215/14 212/212/14
f 214/214/14 216/216/14 215/215/14
f 217/217/14 216/216/14 214/214/14
f 217/217/14 218/218/14 216/216/14
f 219/219/14 218/218/14 217/217/14
f 219/219/14 220/220/14 218/218/14
f 221/221/14 220/220/14 219/219/14
f 221/221/14 222/222/14 220/220/14
f 222/222/14 221/221/14 223/223/14
f 224/224/93 225/225/93 221/221/93
f 224/224/93 199/199/93 225/225/93
f 199/199/86 200/200/86 225/225/86
f 226/226/94 224/224/94 221/221/94
f 226/226/94 221/221/94 227/227/94
f 226/226/95 227/227/95 228/228/95
f 228/228/95 227/227/95 229/229/95
f 228/228/96 229/229/96 29/29/96
f 29/29/96 229/229/96 230/230/96
f 214/214/14 230/230/14 229/229/14
f 231/231/97 230/230/97 214/214/97
f 29/29/97 230/230/97 231/231/97
f 231/231/98 214/214/98 232/232/98
f 232/232/98 214/214/98 233/233/98
f 232/232/99 233/233/99 234/234/99
f 233/233/99 235/235/99 234/234/99
f 234/234/100 235/235/100 236/236/100
f 235/235/100 237/237/100 236/236/100
f 211/211/14 210/210/14 238/238/14
f 237/237/101 210/210/101 68/68/101
f 210/210/92 209/209/92 68/68/92
f 237/237/101 68/68/101 236/236/101
f 23/23/14 22/22/14 65/65/14
f 23/23/14 65/65/14 67/67/14
f 19/19/12 63/63/12 18/18/12
f 9/9/7 10/10/7 53/53/7
f 9/9/102 53/53/102 239/239/102
f 239/239/102 53/53/102 51/51/102
f 239/239/103 51/51/103 240/240/103
f 240/240/103 51/51/103 49/49/103
f 49/49/104 41/41/104 240/240/104
f 49/49/104 45/45/104 41/41/104
f 240/240/105 41/41/105 43/43/105
f 240/240/106 43/43/106 241/241/106
f 241/241/107 239/239/107 240/240/107
f 242/242/107 239/239/107 241/241/107
f 242/242/108 9/9/108 239/239/108
f 8/8/108 9/9/108 242/242/108
